<svg xmlns="http://www.w3.org/2000/svg" xmlns:xlink="http://www.w3.org/1999/xlink" width="172.371" height="164.099" viewBox="0 0 172.371 164.099">
  <defs>
    <linearGradient id="linear-gradient" x1="0.509" y1="0.997" x2="0.509" y2="-0.003" gradientUnits="objectBoundingBox">
      <stop offset="0" stop-color="gray" stop-opacity="0.251"/>
      <stop offset="0.54" stop-color="gray" stop-opacity="0.122"/>
      <stop offset="1" stop-color="gray" stop-opacity="0.102"/>
    </linearGradient>
    <linearGradient id="linear-gradient-2" x1="0.813" y1="0.841" x2="0.813" y2="-0.159" xlink:href="#linear-gradient"/>
    <linearGradient id="linear-gradient-3" x1="1.78" y1="0.849" x2="1.78" y2="-0.151" xlink:href="#linear-gradient"/>
    <linearGradient id="linear-gradient-4" x1="0.5" y1="1" x2="0.5" y2="0" xlink:href="#linear-gradient"/>
    <linearGradient id="linear-gradient-6" x1="0.5" y1="0.999" x2="0.5" y2="-0.001" xlink:href="#linear-gradient"/>
  </defs>
  <g id="undraw_no_data_qbuo" transform="translate(0)">
    <rect id="Rectangle_8" data-name="Rectangle 8" width="91.847" height="126.903" transform="translate(14.527 28.475) rotate(-12.11)" fill="#e0e0e0"/>
    <g id="Group_7" data-name="Group 7" transform="translate(16.496 11.63)" opacity="0.5">
      <rect id="Rectangle_9" data-name="Rectangle 9" width="88.743" height="122.613" transform="translate(0 18.617) rotate(-12.11)" fill="url(#linear-gradient)"/>
    </g>
    <rect id="Rectangle_10" data-name="Rectangle 10" width="86.483" height="119.904" transform="translate(17.788 30.893) rotate(-12.11)" fill="#fafafa"/>
    <rect id="Rectangle_11" data-name="Rectangle 11" width="42.903" height="10.393" transform="translate(38.114 21.216) rotate(-12.11)" fill="url(#linear-gradient-2)"/>
    <path id="Path_4" data-name="Path 4" d="M443.2,91.4a6.141,6.141,0,1,0,7.146,4.746A6.069,6.069,0,0,0,443.2,91.4Zm2.032,9.478a3.543,3.543,0,1,1,2.64-4.2,3.5,3.5,0,0,1-2.64,4.2Z" transform="translate(-386.247 -84.614)" fill="url(#linear-gradient-3)"/>
    <rect id="Rectangle_12" data-name="Rectangle 12" width="42" height="9.935" transform="translate(38.462 20.685) rotate(-12.11)" fill="#6c63ff"/>
    <path id="Path_5" data-name="Path 5" d="M443.495,91.4a5.87,5.87,0,1,0,6.971,4.508,5.87,5.87,0,0,0-6.971-4.508Zm1.942,9.058a3.388,3.388,0,1,1,2.6-4.023,3.388,3.388,0,0,1-2.6,4.023Z" transform="translate(-386.538 -84.614)" fill="#6c63ff"/>
    <rect id="Rectangle_13" data-name="Rectangle 13" width="91.847" height="126.902" transform="translate(54.2 24.57)" fill="#e0e0e0"/>
    <g id="Group_8" data-name="Group 8" transform="translate(55.753 26.716)" opacity="0.5">
      <rect id="Rectangle_14" data-name="Rectangle 14" width="88.742" height="122.613" fill="url(#linear-gradient-4)"/>
    </g>
    <rect id="Rectangle_15" data-name="Rectangle 15" width="86.483" height="119.904" transform="translate(56.881 27.62)" fill="#fff"/>
    <rect id="Rectangle_16" data-name="Rectangle 16" width="42.903" height="10.393" transform="translate(78.785 22.42)" fill="url(#linear-gradient-4)"/>
    <path id="Path_6" data-name="Path 6" d="M644.318,118a6.143,6.143,0,1,0,6,6.141A6.071,6.071,0,0,0,644.318,118Zm0,9.684a3.543,3.543,0,1,1,3.459-3.543,3.5,3.5,0,0,1-3.459,3.527Z" transform="translate(-544.082 -105.724)" fill="url(#linear-gradient-6)"/>
    <rect id="Rectangle_17" data-name="Rectangle 17" width="41.999" height="9.935" transform="translate(79.237 21.975)" fill="#6c63ff"/>
    <path id="Path_7" data-name="Path 7" d="M644.8,118a5.87,5.87,0,1,0,5.87,5.87A5.87,5.87,0,0,0,644.8,118Zm0,9.258a3.391,3.391,0,1,0,0-.01Z" transform="translate(-544.564 -105.724)" fill="#6c63ff"/>
    <g id="Group_9" data-name="Group 9" transform="translate(1.364 154.903)" opacity="0.5">
      <rect id="Rectangle_18" data-name="Rectangle 18" width="0.79" height="4.483" transform="translate(1.845)" fill="#47e6b1"/>
      <rect id="Rectangle_19" data-name="Rectangle 19" width="0.79" height="4.483" transform="translate(4.483 1.847) rotate(90)" fill="#47e6b1"/>
    </g>
    <g id="Group_10" data-name="Group 10" transform="translate(93.042)" opacity="0.5">
      <rect id="Rectangle_20" data-name="Rectangle 20" width="0.79" height="4.483" transform="translate(1.845)" fill="#47e6b1"/>
      <rect id="Rectangle_21" data-name="Rectangle 21" width="0.79" height="4.483" transform="translate(4.483 1.845) rotate(90)" fill="#47e6b1"/>
    </g>
    <path id="Path_8" data-name="Path 8" d="M948.829,825.413a.969.969,0,0,1-.54-1.171.471.471,0,0,0,.021-.107h0a.485.485,0,0,0-.872-.322h0a.472.472,0,0,0-.055.095.969.969,0,0,1-1.171.54.464.464,0,0,0-.107-.021h0a.486.486,0,0,0-.322.872h0a.468.468,0,0,0,.095.055.969.969,0,0,1,.54,1.171.465.465,0,0,0-.021.107h0a.486.486,0,0,0,.872.322h0a.471.471,0,0,0,.055-.095.969.969,0,0,1,1.171-.54.466.466,0,0,0,.107.021h0a.486.486,0,0,0,.322-.872h0a.463.463,0,0,0-.095-.055Z" transform="translate(-786.775 -663.048)" fill="#4d8af0" opacity="0.5"/>
    <path id="Path_9" data-name="Path 9" d="M314.419,620.353a.969.969,0,0,1-.54-1.171.467.467,0,0,0,.021-.107h0a.485.485,0,0,0-.872-.322h0a.463.463,0,0,0-.055.095.969.969,0,0,1-1.171.54.462.462,0,0,0-.107-.021h0a.485.485,0,0,0-.322.872h0a.461.461,0,0,0,.095.055.969.969,0,0,1,.54,1.171.467.467,0,0,0-.021.107h0a.485.485,0,0,0,.872.322h0a.466.466,0,0,0,.055-.095.969.969,0,0,1,1.171-.54.468.468,0,0,0,.107.021h0a.485.485,0,0,0,.322-.872h0a.467.467,0,0,0-.095-.055Z" transform="translate(-285.696 -501.084)" fill="#fdd835" opacity="0.5"/>
    <path id="Path_10" data-name="Path 10" d="M842.829,121.033a.969.969,0,0,1-.54-1.171.471.471,0,0,0,.021-.107h0a.485.485,0,0,0-.872-.322h0a.47.47,0,0,0-.055.095.969.969,0,0,1-1.171.54.467.467,0,0,0-.107-.021h0a.486.486,0,0,0-.322.872h0a.467.467,0,0,0,.095.055.969.969,0,0,1,.54,1.171.462.462,0,0,0-.021.107h0a.485.485,0,0,0,.872.322h0a.467.467,0,0,0,.055-.095.969.969,0,0,1,1.171-.54.466.466,0,0,0,.107.021h0a.485.485,0,0,0,.322-.872h0A.467.467,0,0,0,842.829,121.033Z" transform="translate(-703.052 -106.704)" fill="#fdd835" opacity="0.5"/>
    <circle id="Ellipse_2" data-name="Ellipse 2" cx="1.583" cy="1.583" r="1.583" transform="translate(169.206 64.508)" fill="#f55f44" opacity="0.5"/>
    <circle id="Ellipse_3" data-name="Ellipse 3" cx="1.583" cy="1.583" r="1.583" transform="translate(46.909 155.338)" fill="#f55f44" opacity="0.5"/>
    <circle id="Ellipse_4" data-name="Ellipse 4" cx="1.583" cy="1.583" r="1.583" transform="translate(152.954 98.715)" fill="#f55f44" opacity="0.5"/>
    <circle id="Ellipse_5" data-name="Ellipse 5" cx="1.583" cy="1.583" r="1.583" transform="translate(16.731 18.667)" fill="#4d8af0" opacity="0.5"/>
    <circle id="Ellipse_6" data-name="Ellipse 6" cx="1.583" cy="1.583" r="1.583" transform="translate(0 61.837)" fill="#47e6b1" opacity="0.5"/>
  </g>
</svg>
